solid Surface1
   facet normal 9.942321e-001 1.072499e-001 0.000000e+000
      outer loop
         vertex 7.500000e+000 -1.500000e+001 2.500000e+001
         vertex 7.402877e+000 -1.379692e+001 -2.500000e+001
         vertex 7.402877e+000 -1.379692e+001 2.500000e+001
      endloop
   endfacet
   facet normal 9.770280e-001 2.131110e-001 0.000000e+000
      outer loop
         vertex 7.402877e+000 -1.379692e+001 2.500000e+001
         vertex 7.402877e+000 -1.379692e+001 -2.500000e+001
         vertex 7.114023e+000 -1.262499e+001 -2.500000e+001
      endloop
   endfacet
   facet normal 9.641529e-001 2.653471e-001 0.000000e+000
      outer loop
         vertex 7.402877e+000 -1.379692e+001 2.500000e+001
         vertex 7.114023e+000 -1.262499e+001 -2.500000e+001
         vertex 7.114023e+000 -1.262499e+001 2.500000e+001
      endloop
   endfacet
   facet normal 9.301903e-001 3.670776e-001 0.000000e+000
      outer loop
         vertex 7.114023e+000 -1.262499e+001 2.500000e+001
         vertex 7.114023e+000 -1.262499e+001 -2.500000e+001
         vertex 6.640921e+000 -1.151458e+001 -2.500000e+001
      endloop
   endfacet
   facet normal 9.091028e-001 4.165719e-001 0.000000e+000
      outer loop
         vertex 7.114023e+000 -1.262499e+001 2.500000e+001
         vertex 6.640921e+000 -1.151458e+001 -2.500000e+001
         vertex 6.640921e+000 -1.151458e+001 2.500000e+001
      endloop
   endfacet
   facet normal 8.592612e-001 5.115370e-001 0.000000e+000
      outer loop
         vertex 6.640921e+000 -1.151458e+001 2.500000e+001
         vertex 6.640921e+000 -1.151458e+001 -2.500000e+001
         vertex 5.995821e+000 -1.049443e+001 -2.500000e+001
      endloop
   endfacet
   facet normal 8.305073e-001 5.570078e-001 0.000000e+000
      outer loop
         vertex 6.640921e+000 -1.151458e+001 2.500000e+001
         vertex 5.995821e+000 -1.049443e+001 -2.500000e+001
         vertex 5.995821e+000 -1.049443e+001 2.500000e+001
      endloop
   endfacet
   facet normal 7.660777e-001 6.427480e-001 0.000000e+000
      outer loop
         vertex 5.995821e+000 -1.049443e+001 2.500000e+001
         vertex 5.995821e+000 -1.049443e+001 -2.500000e+001
         vertex 5.195433e+000 -9.590981e+000 -2.500000e+001
      endloop
   endfacet
   facet normal 7.304021e-001 6.830174e-001 0.000000e+000
      outer loop
         vertex 5.995821e+000 -1.049443e+001 2.500000e+001
         vertex 5.195433e+000 -9.590981e+000 -2.500000e+001
         vertex 5.195433e+000 -9.590981e+000 2.500000e+001
      endloop
   endfacet
   facet normal 6.530532e-001 7.573121e-001 0.000000e+000
      outer loop
         vertex 5.195433e+000 -9.590981e+000 2.500000e+001
         vertex 5.195433e+000 -9.590981e+000 -2.500000e+001
         vertex 4.260486e+000 -8.827621e+000 -2.500000e+001
      endloop
   endfacet
   facet normal 6.113799e-001 7.913373e-001 0.000000e+000
      outer loop
         vertex 5.195433e+000 -9.590981e+000 2.500000e+001
         vertex 4.260486e+000 -8.827621e+000 -2.500000e+001
         vertex 4.260486e+000 -8.827621e+000 2.500000e+001
      endloop
   endfacet
   facet normal 5.231149e-001 8.522622e-001 0.000000e+000
      outer loop
         vertex 4.260486e+000 -8.827621e+000 2.500000e+001
         vertex 4.260486e+000 -8.827621e+000 -2.500000e+001
         vertex 3.215194e+000 -8.224121e+000 -2.500000e+001
      endloop
   endfacet
   facet normal 4.765233e-001 8.791618e-001 0.000000e+000
      outer loop
         vertex 4.260486e+000 -8.827621e+000 2.500000e+001
         vertex 3.215194e+000 -8.224121e+000 -2.500000e+001
         vertex 3.215194e+000 -8.224121e+000 2.500000e+001
      endloop
   endfacet
   facet normal 3.796283e-001 9.251391e-001 0.000000e+000
      outer loop
         vertex 3.215194e+000 -8.224121e+000 2.500000e+001
         vertex 3.215194e+000 -8.224121e+000 -2.500000e+001
         vertex 2.086631e+000 -7.796114e+000 -2.500000e+001
      endloop
   endfacet
   facet normal 3.293249e-001 9.442167e-001 0.000000e+000
      outer loop
         vertex 3.215194e+000 -8.224121e+000 2.500000e+001
         vertex 2.086631e+000 -7.796114e+000 -2.500000e+001
         vertex 2.086631e+000 -7.796114e+000 2.500000e+001
      endloop
   endfacet
   facet normal 2.263094e-001 9.740555e-001 0.000000e+000
      outer loop
         vertex 2.086631e+000 -7.796114e+000 2.500000e+001
         vertex 2.086631e+000 -7.796114e+000 -2.500000e+001
         vertex 9.040251e-001 -7.554683e+000 -2.500000e+001
      endloop
   endfacet
   facet normal 1.735972e-001 9.848167e-001 0.000000e+000
      outer loop
         vertex 2.086631e+000 -7.796114e+000 2.500000e+001
         vertex 9.040251e-001 -7.554683e+000 -2.500000e+001
         vertex 9.040251e-001 -7.554683e+000 2.500000e+001
      endloop
   endfacet
   facet normal 6.712926e-002 9.977443e-001 0.000000e+000
      outer loop
         vertex 9.040251e-001 -7.554683e+000 2.500000e+001
         vertex 9.040251e-001 -7.554683e+000 -2.500000e+001
         vertex -3.019946e-001 -7.506083e+000 -2.500000e+001
      endloop
   endfacet
   facet normal 1.337347e-002 9.999106e-001 0.000000e+000
      outer loop
         vertex 9.040251e-001 -7.554683e+000 2.500000e+001
         vertex -3.019946e-001 -7.506083e+000 -2.500000e+001
         vertex -3.019946e-001 -7.506083e+000 2.500000e+001
      endloop
   endfacet
   facet normal -9.378947e-002 9.955921e-001 0.000000e+000
      outer loop
         vertex -3.019946e-001 -7.506083e+000 2.500000e+001
         vertex -3.019946e-001 -7.506083e+000 -2.500000e+001
         vertex -1.500193e+000 -7.651570e+000 -2.500000e+001
      endloop
   endfacet
   facet normal -1.471967e-001 9.891073e-001 0.000000e+000
      outer loop
         vertex -3.019946e-001 -7.506083e+000 2.500000e+001
         vertex -1.500193e+000 -7.651570e+000 -2.500000e+001
         vertex -1.500193e+000 -7.651570e+000 2.500000e+001
      endloop
   endfacet
   facet normal -2.522791e-001 9.676545e-001 0.000000e+000
      outer loop
         vertex -1.500193e+000 -7.651570e+000 2.500000e+001
         vertex -1.500193e+000 -7.651570e+000 -2.500000e+001
         vertex -2.659537e+000 -7.987378e+000 -2.500000e+001
      endloop
   endfacet
   facet normal -3.039545e-001 9.526865e-001 0.000000e+000
      outer loop
         vertex -1.500193e+000 -7.651570e+000 2.500000e+001
         vertex -2.659537e+000 -7.987378e+000 -2.500000e+001
         vertex -2.659537e+000 -7.987378e+000 2.500000e+001
      endloop
   endfacet
   facet normal -4.042349e-001 9.146552e-001 0.000000e+000
      outer loop
         vertex -2.659537e+000 -7.987378e+000 2.500000e+001
         vertex -2.659537e+000 -7.987378e+000 -2.500000e+001
         vertex -3.750000e+000 -8.504809e+000 -2.500000e+001
      endloop
   endfacet
   facet normal -4.528400e-001 8.915918e-001 0.000000e+000
      outer loop
         vertex -2.659537e+000 -7.987378e+000 2.500000e+001
         vertex -3.750000e+000 -8.504809e+000 -2.500000e+001
         vertex -3.750000e+000 -8.504809e+000 2.500000e+001
      endloop
   endfacet
   facet normal -5.457212e-001 8.379669e-001 0.000000e+000
      outer loop
         vertex -3.750000e+000 -8.504809e+000 2.500000e+001
         vertex -3.750000e+000 -8.504809e+000 -2.500000e+001
         vertex -4.743340e+000 -9.190462e+000 -2.500000e+001
      endloop
   endfacet
   facet normal -5.899972e-001 8.074053e-001 0.000000e+000
      outer loop
         vertex -3.750000e+000 -8.504809e+000 2.500000e+001
         vertex -4.743340e+000 -9.190462e+000 -2.500000e+001
         vertex -4.743340e+000 -9.190462e+000 2.500000e+001
      endloop
   endfacet
   facet normal -6.730735e-001 7.395756e-001 0.000000e+000
      outer loop
         vertex -4.743340e+000 -9.190462e+000 2.500000e+001
         vertex -4.743340e+000 -9.190462e+000 -2.500000e+001
         vertex -5.613831e+000 -1.002658e+001 -2.500000e+001
      endloop
   endfacet
   facet normal -7.118738e-001 7.023074e-001 0.000000e+000
      outer loop
         vertex -4.743340e+000 -9.190462e+000 2.500000e+001
         vertex -5.613831e+000 -1.002658e+001 -2.500000e+001
         vertex -5.613831e+000 -1.002658e+001 2.500000e+001
      endloop
   endfacet
   facet normal -7.829937e-001 6.220297e-001 0.000000e+000
      outer loop
         vertex -5.613831e+000 -1.002658e+001 2.500000e+001
         vertex -5.613831e+000 -1.002658e+001 -2.500000e+001
         vertex -6.338925e+000 -1.099151e+001 -2.500000e+001
      endloop
   endfacet
   facet normal -8.153133e-001 5.790201e-001 0.000000e+000
      outer loop
         vertex -5.613831e+000 -1.002658e+001 2.500000e+001
         vertex -6.338925e+000 -1.099151e+001 -2.500000e+001
         vertex -6.338925e+000 -1.099151e+001 2.500000e+001
      endloop
   endfacet
   facet normal -8.726347e-001 4.883735e-001 0.000000e+000
      outer loop
         vertex -6.338925e+000 -1.099151e+001 2.500000e+001
         vertex -6.338925e+000 -1.099151e+001 -2.500000e+001
         vertex -6.899846e+000 -1.206025e+001 -2.500000e+001
      endloop
   endfacet
   facet normal -8.976365e-001 4.407364e-001 0.000000e+000
      outer loop
         vertex -6.338925e+000 -1.099151e+001 2.500000e+001
         vertex -6.899846e+000 -1.206025e+001 -2.500000e+001
         vertex -6.899846e+000 -1.206025e+001 2.500000e+001
      endloop
   endfacet
   facet normal -9.396749e-001 3.420688e-001 0.000000e+000
      outer loop
         vertex -6.899846e+000 -1.206025e+001 2.500000e+001
         vertex -6.899846e+000 -1.206025e+001 -2.500000e+001
         vertex -7.282064e+000 -1.320513e+001 -2.500000e+001
      endloop
   endfacet
   facet normal -9.567115e-001 2.910380e-001 0.000000e+000
      outer loop
         vertex -6.899846e+000 -1.206025e+001 2.500000e+001
         vertex -7.282064e+000 -1.320513e+001 -2.500000e+001
         vertex -7.282064e+000 -1.320513e+001 2.500000e+001
      endloop
   endfacet
   facet normal -9.823781e-001 1.869046e-001 0.000000e+000
      outer loop
         vertex -7.282064e+000 -1.320513e+001 2.500000e+001
         vertex -7.282064e+000 -1.320513e+001 -2.500000e+001
         vertex -7.475680e+000 -1.439650e+001 -2.500000e+001
      endloop
   endfacet
   facet normal -9.910081e-001 1.338019e-001 0.000000e+000
      outer loop
         vertex -7.282064e+000 -1.320513e+001 2.500000e+001
         vertex -7.475680e+000 -1.439650e+001 -2.500000e+001
         vertex -7.475680e+000 -1.439650e+001 2.500000e+001
      endloop
   endfacet
   facet normal -9.996382e-001 2.689971e-002 0.000000e+000
      outer loop
         vertex -7.475680e+000 -1.439650e+001 2.500000e+001
         vertex -7.475680e+000 -1.439650e+001 -2.500000e+001
         vertex -7.475680e+000 -1.560350e+001 -2.500000e+001
      endloop
   endfacet
   facet normal -9.996382e-001 -2.689971e-002 0.000000e+000
      outer loop
         vertex -7.475680e+000 -1.439650e+001 2.500000e+001
         vertex -7.475680e+000 -1.560350e+001 -2.500000e+001
         vertex -7.475680e+000 -1.560350e+001 2.500000e+001
      endloop
   endfacet
   facet normal -9.910081e-001 -1.338019e-001 0.000000e+000
      outer loop
         vertex -7.475680e+000 -1.560350e+001 2.500000e+001
         vertex -7.475680e+000 -1.560350e+001 -2.500000e+001
         vertex -7.282064e+000 -1.679487e+001 -2.500000e+001
      endloop
   endfacet
   facet normal -9.823781e-001 -1.869046e-001 0.000000e+000
      outer loop
         vertex -7.475680e+000 -1.560350e+001 2.500000e+001
         vertex -7.282064e+000 -1.679487e+001 -2.500000e+001
         vertex -7.282064e+000 -1.679487e+001 2.500000e+001
      endloop
   endfacet
   facet normal -9.567115e-001 -2.910380e-001 0.000000e+000
      outer loop
         vertex -7.282064e+000 -1.679487e+001 2.500000e+001
         vertex -7.282064e+000 -1.679487e+001 -2.500000e+001
         vertex -6.899846e+000 -1.793975e+001 -2.500000e+001
      endloop
   endfacet
   facet normal -9.396749e-001 -3.420688e-001 0.000000e+000
      outer loop
         vertex -7.282064e+000 -1.679487e+001 2.500000e+001
         vertex -6.899846e+000 -1.793975e+001 -2.500000e+001
         vertex -6.899846e+000 -1.793975e+001 2.500000e+001
      endloop
   endfacet
   facet normal -8.976365e-001 -4.407365e-001 0.000000e+000
      outer loop
         vertex -6.899846e+000 -1.793975e+001 2.500000e+001
         vertex -6.899846e+000 -1.793975e+001 -2.500000e+001
         vertex -6.338925e+000 -1.900849e+001 -2.500000e+001
      endloop
   endfacet
   facet normal -8.726347e-001 -4.883736e-001 0.000000e+000
      outer loop
         vertex -6.899846e+000 -1.793975e+001 2.500000e+001
         vertex -6.338925e+000 -1.900849e+001 -2.500000e+001
         vertex -6.338925e+000 -1.900849e+001 2.500000e+001
      endloop
   endfacet
   facet normal -8.153133e-001 -5.790201e-001 0.000000e+000
      outer loop
         vertex -6.338925e+000 -1.900849e+001 2.500000e+001
         vertex -6.338925e+000 -1.900849e+001 -2.500000e+001
         vertex -5.613831e+000 -1.997342e+001 -2.500000e+001
      endloop
   endfacet
   facet normal -7.829937e-001 -6.220297e-001 0.000000e+000
      outer loop
         vertex -6.338925e+000 -1.900849e+001 2.500000e+001
         vertex -5.613831e+000 -1.997342e+001 -2.500000e+001
         vertex -5.613831e+000 -1.997342e+001 2.500000e+001
      endloop
   endfacet
   facet normal -7.118738e-001 -7.023074e-001 0.000000e+000
      outer loop
         vertex -5.613831e+000 -1.997342e+001 2.500000e+001
         vertex -5.613831e+000 -1.997342e+001 -2.500000e+001
         vertex -4.743340e+000 -2.080954e+001 -2.500000e+001
      endloop
   endfacet
   facet normal -6.730735e-001 -7.395756e-001 0.000000e+000
      outer loop
         vertex -5.613831e+000 -1.997342e+001 2.500000e+001
         vertex -4.743340e+000 -2.080954e+001 -2.500000e+001
         vertex -4.743340e+000 -2.080954e+001 2.500000e+001
      endloop
   endfacet
   facet normal -5.899972e-001 -8.074053e-001 0.000000e+000
      outer loop
         vertex -4.743340e+000 -2.080954e+001 2.500000e+001
         vertex -4.743340e+000 -2.080954e+001 -2.500000e+001
         vertex -3.750000e+000 -2.149519e+001 -2.500000e+001
      endloop
   endfacet
   facet normal -5.457212e-001 -8.379669e-001 0.000000e+000
      outer loop
         vertex -4.743340e+000 -2.080954e+001 2.500000e+001
         vertex -3.750000e+000 -2.149519e+001 -2.500000e+001
         vertex -3.750000e+000 -2.149519e+001 2.500000e+001
      endloop
   endfacet
   facet normal -4.528400e-001 -8.915918e-001 0.000000e+000
      outer loop
         vertex -3.750000e+000 -2.149519e+001 2.500000e+001
         vertex -3.750000e+000 -2.149519e+001 -2.500000e+001
         vertex -2.659537e+000 -2.201262e+001 -2.500000e+001
      endloop
   endfacet
   facet normal -4.042349e-001 -9.146552e-001 0.000000e+000
      outer loop
         vertex -3.750000e+000 -2.149519e+001 2.500000e+001
         vertex -2.659537e+000 -2.201262e+001 -2.500000e+001
         vertex -2.659537e+000 -2.201262e+001 2.500000e+001
      endloop
   endfacet
   facet normal -3.039545e-001 -9.526865e-001 0.000000e+000
      outer loop
         vertex -2.659537e+000 -2.201262e+001 2.500000e+001
         vertex -2.659537e+000 -2.201262e+001 -2.500000e+001
         vertex -1.500193e+000 -2.234843e+001 -2.500000e+001
      endloop
   endfacet
   facet normal -2.522791e-001 -9.676545e-001 0.000000e+000
      outer loop
         vertex -2.659537e+000 -2.201262e+001 2.500000e+001
         vertex -1.500193e+000 -2.234843e+001 -2.500000e+001
         vertex -1.500193e+000 -2.234843e+001 2.500000e+001
      endloop
   endfacet
   facet normal -1.471967e-001 -9.891073e-001 0.000000e+000
      outer loop
         vertex -1.500193e+000 -2.234843e+001 2.500000e+001
         vertex -1.500193e+000 -2.234843e+001 -2.500000e+001
         vertex -3.019946e-001 -2.249392e+001 -2.500000e+001
      endloop
   endfacet
   facet normal -9.378949e-002 -9.955921e-001 0.000000e+000
      outer loop
         vertex -1.500193e+000 -2.234843e+001 2.500000e+001
         vertex -3.019946e-001 -2.249392e+001 -2.500000e+001
         vertex -3.019946e-001 -2.249392e+001 2.500000e+001
      endloop
   endfacet
   facet normal 1.337347e-002 -9.999106e-001 0.000000e+000
      outer loop
         vertex -3.019946e-001 -2.249392e+001 2.500000e+001
         vertex -3.019946e-001 -2.249392e+001 -2.500000e+001
         vertex 9.040251e-001 -2.244532e+001 -2.500000e+001
      endloop
   endfacet
   facet normal 6.712926e-002 -9.977443e-001 0.000000e+000
      outer loop
         vertex -3.019946e-001 -2.249392e+001 2.500000e+001
         vertex 9.040251e-001 -2.244532e+001 -2.500000e+001
         vertex 9.040251e-001 -2.244532e+001 2.500000e+001
      endloop
   endfacet
   facet normal 1.735972e-001 -9.848167e-001 0.000000e+000
      outer loop
         vertex 9.040251e-001 -2.244532e+001 2.500000e+001
         vertex 9.040251e-001 -2.244532e+001 -2.500000e+001
         vertex 2.086631e+000 -2.220388e+001 -2.500000e+001
      endloop
   endfacet
   facet normal 2.263094e-001 -9.740555e-001 0.000000e+000
      outer loop
         vertex 9.040251e-001 -2.244532e+001 2.500000e+001
         vertex 2.086631e+000 -2.220388e+001 -2.500000e+001
         vertex 2.086631e+000 -2.220388e+001 2.500000e+001
      endloop
   endfacet
   facet normal 3.293249e-001 -9.442167e-001 0.000000e+000
      outer loop
         vertex 2.086631e+000 -2.220388e+001 2.500000e+001
         vertex 2.086631e+000 -2.220388e+001 -2.500000e+001
         vertex 3.215194e+000 -2.177588e+001 -2.500000e+001
      endloop
   endfacet
   facet normal 3.796282e-001 -9.251391e-001 0.000000e+000
      outer loop
         vertex 2.086631e+000 -2.220388e+001 2.500000e+001
         vertex 3.215194e+000 -2.177588e+001 -2.500000e+001
         vertex 3.215194e+000 -2.177588e+001 2.500000e+001
      endloop
   endfacet
   facet normal 4.765233e-001 -8.791618e-001 0.000000e+000
      outer loop
         vertex 3.215194e+000 -2.177588e+001 2.500000e+001
         vertex 3.215194e+000 -2.177588e+001 -2.500000e+001
         vertex 4.260486e+000 -2.117238e+001 -2.500000e+001
      endloop
   endfacet
   facet normal 5.231149e-001 -8.522622e-001 0.000000e+000
      outer loop
         vertex 3.215194e+000 -2.177588e+001 2.500000e+001
         vertex 4.260486e+000 -2.117238e+001 -2.500000e+001
         vertex 4.260486e+000 -2.117238e+001 2.500000e+001
      endloop
   endfacet
   facet normal 6.113799e-001 -7.913373e-001 0.000000e+000
      outer loop
         vertex 4.260486e+000 -2.117238e+001 2.500000e+001
         vertex 4.260486e+000 -2.117238e+001 -2.500000e+001
         vertex 5.195433e+000 -2.040902e+001 -2.500000e+001
      endloop
   endfacet
   facet normal 6.530532e-001 -7.573121e-001 0.000000e+000
      outer loop
         vertex 4.260486e+000 -2.117238e+001 2.500000e+001
         vertex 5.195433e+000 -2.040902e+001 -2.500000e+001
         vertex 5.195433e+000 -2.040902e+001 2.500000e+001
      endloop
   endfacet
   facet normal 7.304021e-001 -6.830174e-001 0.000000e+000
      outer loop
         vertex 5.195433e+000 -2.040902e+001 2.500000e+001
         vertex 5.195433e+000 -2.040902e+001 -2.500000e+001
         vertex 5.995821e+000 -1.950557e+001 -2.500000e+001
      endloop
   endfacet
   facet normal 7.660777e-001 -6.427480e-001 0.000000e+000
      outer loop
         vertex 5.195433e+000 -2.040902e+001 2.500000e+001
         vertex 5.995821e+000 -1.950557e+001 -2.500000e+001
         vertex 5.995821e+000 -1.950557e+001 2.500000e+001
      endloop
   endfacet
   facet normal 8.305073e-001 -5.570078e-001 0.000000e+000
      outer loop
         vertex 5.995821e+000 -1.950557e+001 2.500000e+001
         vertex 5.995821e+000 -1.950557e+001 -2.500000e+001
         vertex 6.640921e+000 -1.848542e+001 -2.500000e+001
      endloop
   endfacet
   facet normal 8.592612e-001 -5.115370e-001 0.000000e+000
      outer loop
         vertex 5.995821e+000 -1.950557e+001 2.500000e+001
         vertex 6.640921e+000 -1.848542e+001 -2.500000e+001
         vertex 6.640921e+000 -1.848542e+001 2.500000e+001
      endloop
   endfacet
   facet normal 9.091027e-001 -4.165719e-001 0.000000e+000
      outer loop
         vertex 6.640921e+000 -1.848542e+001 2.500000e+001
         vertex 6.640921e+000 -1.848542e+001 -2.500000e+001
         vertex 7.114023e+000 -1.737501e+001 -2.500000e+001
      endloop
   endfacet
   facet normal 9.301903e-001 -3.670776e-001 0.000000e+000
      outer loop
         vertex 6.640921e+000 -1.848542e+001 2.500000e+001
         vertex 7.114023e+000 -1.737501e+001 -2.500000e+001
         vertex 7.114023e+000 -1.737501e+001 2.500000e+001
      endloop
   endfacet
   facet normal 9.641529e-001 -2.653471e-001 0.000000e+000
      outer loop
         vertex 7.114023e+000 -1.737501e+001 2.500000e+001
         vertex 7.114023e+000 -1.737501e+001 -2.500000e+001
         vertex 7.402877e+000 -1.620308e+001 -2.500000e+001
      endloop
   endfacet
   facet normal 9.770280e-001 -2.131110e-001 0.000000e+000
      outer loop
         vertex 7.114023e+000 -1.737501e+001 2.500000e+001
         vertex 7.402877e+000 -1.620308e+001 -2.500000e+001
         vertex 7.402877e+000 -1.620308e+001 2.500000e+001
      endloop
   endfacet
   facet normal 9.942321e-001 -1.072499e-001 0.000000e+000
      outer loop
         vertex 7.402877e+000 -1.620308e+001 2.500000e+001
         vertex 7.402877e+000 -1.620308e+001 -2.500000e+001
         vertex 7.500000e+000 -1.500000e+001 -2.500000e+001
      endloop
   endfacet
   facet normal 9.985611e-001 -5.362497e-002 0.000000e+000
      outer loop
         vertex 7.402877e+000 -1.620308e+001 2.500000e+001
         vertex 7.500000e+000 -1.500000e+001 -2.500000e+001
         vertex 7.500000e+000 -1.500000e+001 2.500000e+001
      endloop
   endfacet
   facet normal 9.985611e-001 5.362497e-002 0.000000e+000
      outer loop
         vertex 7.500000e+000 -1.500000e+001 2.500000e+001
         vertex 7.500000e+000 -1.500000e+001 -2.500000e+001
         vertex 7.402877e+000 -1.379692e+001 -2.500000e+001
      endloop
   endfacet
endsolid